<?xml version="1.0" encoding="UTF-8" standalone="no"?>
<!-- Generator: Adobe Illustrator 19.0.0, SVG Export Plug-In . SVG Version: 6.00 Build 0)  -->

<svg
   xmlns:dc="http://purl.org/dc/elements/1.1/"
   xmlns:cc="http://creativecommons.org/ns#"
   xmlns:rdf="http://www.w3.org/1999/02/22-rdf-syntax-ns#"
   xmlns:svg="http://www.w3.org/2000/svg"
   xmlns="http://www.w3.org/2000/svg"
   xmlns:sodipodi="http://sodipodi.sourceforge.net/DTD/sodipodi-0.dtd"
   xmlns:inkscape="http://www.inkscape.org/namespaces/inkscape"
   version="1.1"
   id="Capa_1"
   x="0px"
   y="0px"
   viewBox="0 0 152.18298 152.18298"
   xml:space="preserve"
   sodipodi:docname="add_alt.svg"
   inkscape:version="0.92.3 (2405546, 2018-03-11)"
   width="152.18298"
   height="152.18298"><metadata
   id="metadata67"><rdf:RDF><cc:Work
       rdf:about=""><dc:format>image/svg+xml</dc:format><dc:type
         rdf:resource="http://purl.org/dc/dcmitype/StillImage" /><dc:title /></cc:Work></rdf:RDF></metadata><defs
   id="defs65" /><sodipodi:namedview
   pagecolor="#ffffff"
   bordercolor="#666666"
   borderopacity="1"
   objecttolerance="10"
   gridtolerance="10"
   guidetolerance="10"
   inkscape:pageopacity="0"
   inkscape:pageshadow="2"
   inkscape:window-width="1280"
   inkscape:window-height="996"
   id="namedview63"
   showgrid="false"
   inkscape:zoom="0.92187505"
   inkscape:cx="18.284852"
   inkscape:cy="27.7411"
   inkscape:window-x="0"
   inkscape:window-y="28"
   inkscape:window-maximized="1"
   inkscape:current-layer="Capa_1"
   inkscape:snap-global="false"
   fit-margin-top="0"
   fit-margin-left="0"
   fit-margin-right="0"
   fit-margin-bottom="0" />




















<path
   style="color:#000000;font-style:normal;font-variant:normal;font-weight:normal;font-stretch:normal;font-size:medium;line-height:normal;font-family:sans-serif;font-variant-ligatures:normal;font-variant-position:normal;font-variant-caps:normal;font-variant-numeric:normal;font-variant-alternates:normal;font-feature-settings:normal;text-indent:0;text-align:start;text-decoration:none;text-decoration-line:none;text-decoration-style:solid;text-decoration-color:#000000;letter-spacing:normal;word-spacing:normal;text-transform:none;writing-mode:lr-tb;direction:ltr;text-orientation:mixed;dominant-baseline:auto;baseline-shift:baseline;text-anchor:start;white-space:normal;shape-padding:0;clip-rule:nonzero;display:inline;overflow:visible;visibility:visible;opacity:1;isolation:auto;mix-blend-mode:normal;color-interpolation:sRGB;color-interpolation-filters:linearRGB;solid-color:#000000;solid-opacity:1;vector-effect:none;fill:#7aa815;fill-opacity:1;fill-rule:nonzero;stroke:none;stroke-width:10.91830254;stroke-linecap:butt;stroke-linejoin:miter;stroke-miterlimit:4;stroke-dasharray:none;stroke-dashoffset:0;stroke-opacity:1;color-rendering:auto;image-rendering:auto;shape-rendering:auto;text-rendering:auto;enable-background:accumulate"
   d="M 35.5317,0 C 15.94155,0 0,15.94155 0,35.5317 v 81.11958 c 0,19.59015 15.94155,35.5317 35.5317,35.5317 h 81.11958 c 19.59015,0 35.5317,-15.94155 35.5317,-35.5317 V 35.5317 C 152.18298,15.94155 136.24143,0 116.65128,0 Z m 0,10.9183 h 81.11958 c 13.73027,0 24.6134,10.88313 24.6134,24.6134 v 81.11958 c 0,13.73026 -10.88313,24.6134 -24.6134,24.6134 H 35.5317 c -13.73027,0 -24.6134,-10.88314 -24.6134,-24.6134 V 35.5317 c 0,-13.73027 10.88313,-24.6134 24.6134,-24.6134 z"
   id="rect835"
   inkscape:connector-curvature="0" /><g
   id="g844"
   transform="matrix(0.77987875,0,0,0.77987875,-126.09817,-122.21248)"><path
     style="fill:#7aa815;fill-opacity:1;fill-rule:nonzero;stroke:none;stroke-width:15.59501648;stroke-miterlimit:4;stroke-dasharray:none;stroke-dashoffset:0;stroke-opacity:1"
     d="m 258.89062,209.78906 c -4.98599,0 -9,4.37897 -9,9.81641 v 24.9043 h -24.90624 c -5.43744,0 -9.81446,4.014 -9.81446,9 0,4.986 4.37701,9 9.81446,9 h 24.90624 v 24.90625 c 0,5.43743 4.01401,9.81445 9,9.81445 4.986,0 9,-4.37702 9,-9.81445 v -24.90625 h 24.90626 c 5.43742,0 9.81445,-4.014 9.81445,-9 0,-4.986 -4.37702,-9 -9.81445,-9 h -24.90626 v -24.9043 c 0,-5.43744 -4.014,-9.81641 -9,-9.81641 z"
     id="rect846"
     inkscape:connector-curvature="0" /></g></svg>